<?xml version="1.0" encoding="utf-8"?>
<!-- Generator: Adobe Illustrator 22.1.0, SVG Export Plug-In . SVG Version: 6.00 Build 0)  -->
<svg version="1.1" id="Layer_1" xmlns="http://www.w3.org/2000/svg" xmlns:xlink="http://www.w3.org/1999/xlink" x="0px" y="0px"
	 width="2000px" height="2000px" viewBox="0 0 2000 2000" style="enable-background:new 0 0 2000 2000;" xml:space="preserve">
<style type="text/css">
	.st0{fill:url(#SVGID_1_);}
	.st1{fill:url(#SVGID_2_);}
	.st2{fill:url(#SVGID_3_);}
	.st3{fill:url(#SVGID_4_);}
	.st4{fill:url(#SVGID_5_);}
	.st5{fill:url(#SVGID_6_);}
	.st6{fill:#FDFCEA;}
	.st7{fill:url(#SVGID_7_);}
	.st8{fill:#FCFFFD;}
	.st9{fill:url(#SVGID_8_);}
	.st10{fill:url(#SVGID_9_);}
	.st11{fill:url(#SVGID_10_);}
	.st12{fill:url(#SVGID_11_);}
	.st13{fill:url(#SVGID_12_);}
	.st14{fill:#FFFDFD;}
	.st15{font-family:'Roboto-Regular';}
	.st16{font-size:22.7643px;}
	.st17{letter-spacing:-1;}
	.st18{font-family:'Roboto-Bold';}
	.st19{font-size:36.9503px;}
	.st20{letter-spacing:-3;}
	.st21{font-family:'Roboto-Black';}
	.st22{font-size:129.34px;}
	.st23{font-size:50.7951px;}
	.st24{fill:url(#SVGID_13_);}
	.st25{fill:url(#SVGID_14_);}
	.st26{fill:url(#SVGID_15_);}
	.st27{fill:url(#SVGID_16_);}
	.st28{fill:url(#SVGID_17_);}
	.st29{fill:url(#SVGID_18_);}
	.st30{fill:url(#SVGID_19_);}
	.st31{fill:url(#SVGID_20_);}
	.st32{fill:url(#SVGID_21_);}
	.st33{fill:url(#SVGID_22_);}
	.st34{fill:url(#SVGID_23_);}
	.st35{fill:url(#SVGID_24_);}
	.st36{font-size:47.8981px;}
	.st37{fill:#F2EBEB;}
	.st38{fill:#DDA8A8;}
	.st39{font-size:30.3946px;}
	.st40{fill:url(#SVGID_25_);}
	.st41{fill:url(#SVGID_26_);}
	.st42{fill:url(#SVGID_27_);}
	.st43{fill:#E6FFF7;}
	.st44{fill:#8EE8E2;}
	.st45{fill:#46CDD0;}
	.st46{fill:#3E84A8;}
	.st47{fill:#86D7DB;}
	.st48{fill:#BFD6E2;}
	.st49{fill:#74C7CF;}
	.st50{fill:#E9EBF2;}
	.st51{fill:#66ABC6;}
	.st52{fill:#D2F4E7;}
	.st53{fill:#CFEEE4;}
	.st54{fill:url(#SVGID_28_);}
	.st55{fill:url(#SVGID_29_);}
	.st56{fill:url(#SVGID_30_);}
	.st57{fill:url(#SVGID_31_);}
	.st58{fill:url(#SVGID_32_);}
</style>
<g xmlns="http://www.w3.org/2000/svg">
				<linearGradient id="SVGID_25_" gradientUnits="userSpaceOnUse" x1="1413.7144" y1="1089.4509" x2="1413.7144" y2="306.3136">
					<stop offset="0" style="stop-color:#B5F7E5"/>
					<stop offset="0.2184" style="stop-color:#87E5DB"/>
					<stop offset="0.4126" style="stop-color:#63D6D3"/>
					<stop offset="0.5581" style="stop-color:#56B9C4"/>
					<stop offset="0.7349" style="stop-color:#499CB5"/>
					<stop offset="0.8883" style="stop-color:#418AAB"/>
					<stop offset="1" style="stop-color:#3E84A8"/>
				</linearGradient>
				<path class="st40" d="M1765.8,1663.2h-704.1c-17,0-30.7-13.7-30.7-30.7V333c0-17,13.7-30.7,30.7-30.7h704.1      c17,0,30.7,13.7,30.7,30.7v1299.5C1796.5,1649.5,1782.7,1663.2,1765.8,1663.2z"/>
				<g>
					
						<linearGradient id="SVGID_26_" gradientUnits="userSpaceOnUse" x1="1.5291" y1="-2.4597" x2="2.5291" y2="-2.4597" gradientTransform="matrix(8.055968e-11 -783.1374 -783.1374 -8.055968e-11 -665.253 2286.9133)">
						<stop offset="0" style="stop-color:#CAF8E6"/>
						<stop offset="0.164" style="stop-color:#B1EEE1"/>
						<stop offset="0.4126" style="stop-color:#90E1DA"/>
						<stop offset="0.4483" style="stop-color:#8DDCD7"/>
						<stop offset="0.6689" style="stop-color:#80BFC8"/>
						<stop offset="0.8603" style="stop-color:#78ADBE"/>
						<stop offset="1" style="stop-color:#75A7BB"/>
					</linearGradient>
					<path class="st41" d="M1261,962.2c-61.6,0-111.5-49.9-111.5-111.5c0-61.6,49.9-111.5,111.5-111.5       c61.6,0,111.5,49.9,111.5,111.5C1372.5,912.3,1322.6,962.2,1261,962.2 M1261,722.4c-70.8,0-128.3,57.4-128.3,128.3       c0,70.8,57.4,128.3,128.3,128.3c70.8,0,128.3-57.4,128.3-128.3C1389.3,779.9,1331.8,722.4,1261,722.4"/>
					
						<linearGradient id="SVGID_27_" gradientUnits="userSpaceOnUse" x1="1.5291" y1="-2.4597" x2="2.5291" y2="-2.4597" gradientTransform="matrix(8.055968e-11 -783.1374 -783.1374 -8.055968e-11 -665.253 2286.9133)">
						<stop offset="0" style="stop-color:#D9F9E7"/>
						<stop offset="7.798468e-02" style="stop-color:#D1F6E5"/>
						<stop offset="0.4126" style="stop-color:#B0E9DF"/>
						<stop offset="0.5876" style="stop-color:#A8D8D6"/>
						<stop offset="0.8255" style="stop-color:#9FC6CC"/>
						<stop offset="1" style="stop-color:#9CC0C9"/>
					</linearGradient>
					<path class="st42" d="M1261,739.2c-61.6,0-111.5,49.9-111.5,111.5c0,61.6,49.9,111.5,111.5,111.5       c61.6,0,111.5-49.9,111.5-111.5C1372.5,789.1,1322.6,739.2,1261,739.2"/>
				</g>
				<path class="st43" d="M1312.2,890.4c-53.2,0-96.3-43.1-96.3-96.3c0-10.3,1.6-20.3,4.6-29.6c-31.7,15.7-53.6,48.5-53.6,86.3      c0,53.2,43.1,96.3,96.3,96.3c42.9,0,79.2-28,91.6-66.7C1342.1,886.8,1327.6,890.4,1312.2,890.4z"/>
				<rect x="1031" y="1076.3" class="st44" width="765.5" height="280.6"/>
				<path class="st8" d="M1031,1356.9v275.6c0,17,13.7,30.7,30.7,30.7h704.1c17,0,30.7-13.7,30.7-30.7v-275.6H1031z"/>
				<path class="st45" d="M1327.1,1076.3c0,0,252-119,469.4-43.1v43.1H1327.1z"/>
				<path class="st46" d="M1474.1,1076.3c0,0,171.9-98.1,322.4-101v101H1474.1z"/>
				<g>
					<path class="st47" d="M1474.1,1076.3h-147c0,0,141,47.4,303,48.7C1542.1,1104,1474.1,1076.3,1474.1,1076.3"/>
					<polyline class="st48" points="1796.5,1076.3 1474.1,1076.3 1474.1,1076.3 1796.5,1076.3 1796.5,1148.2 1796.5,1148.2        1796.5,1107 1796.5,1076.3      "/>
					<path class="st49" d="M1796.5,1076.3h-322.4c0,0,68,27.7,156,48.7c51.8,12.4,110.6,22.5,166.4,23.2L1796.5,1076.3"/>
				</g>
				<g>
					<g>
						<path class="st14" d="M1559.4,403.7c-6.9,0-11.3,4.9-11.3,14.1s9,19.1,11.3,19.3c2.3-0.2,11.3-10.1,11.3-19.3        S1566.3,403.7,1559.4,403.7z M1559.4,420.9c-3.7,0-6.7-3-6.7-6.7s3-6.7,6.7-6.7c3.7,0,6.7,3,6.7,6.7        S1563.1,420.9,1559.4,420.9z"/>
					</g>
					<g>
						<g>
						</g>
						<path class="st14" d="M1675.3,520c-9.5,0-17.3-7.7-17.3-17.3s7.7-17.3,17.3-17.3s17.3,7.7,17.3,17.3S1684.8,520,1675.3,520z         M1675.3,492.4c-5.7,0-10.3,4.6-10.3,10.3s4.6,10.3,10.3,10.3s10.3-4.6,10.3-10.3S1681,492.4,1675.3,492.4z"/>
						<g>
						</g>
					</g>
				</g>
				<g>
					<g>
						<g>
						</g>
					</g>
					<g>
						<path class="st14" d="M1236.5,525.9h-76.2c-17.4,0-31.5-14.1-31.5-31.5c0-17.4,14.1-31.5,31.5-31.5c1.4,0,2.9,0.1,4.3,0.3        c7.5-11.4,20-18.2,33.8-18.2c13.7,0,26.3,6.8,33.8,18.2c1.4-0.2,2.9-0.3,4.3-0.3c17.4,0,31.5,14.1,31.5,31.5        C1267.9,511.8,1253.8,525.9,1236.5,525.9z M1160.3,467c-15.1,0-27.5,12.3-27.5,27.5c0,15.1,12.3,27.5,27.5,27.5h76.2        c15.1,0,27.5-12.3,27.5-27.5c0-15.1-12.3-27.5-27.5-27.5c-1.6,0-3.3,0.2-4.9,0.4c-0.8,0.1-1.6-0.2-2.1-0.9        c-6.7-10.9-18.3-17.4-31.1-17.4s-24.4,6.5-31.1,17.4c-0.4,0.7-1.2,1.1-2.1,0.9C1163.6,467.1,1161.9,467,1160.3,467z"/>
						<path class="st14" d="M1283.7,493h-17.7c-1.1,0-2-0.9-2-2s0.9-2,2-2h17.7c10.6,0,19.3-8.6,19.3-19.3        c0-10.6-8.6-19.3-19.3-19.3c-1.1,0-2.3,0.1-3.5,0.3c-0.8,0.1-1.6-0.2-2.1-0.9c-4.7-7.7-12.9-12.3-22-12.3        c-9,0-17.2,4.6-22,12.3c-0.4,0.7-1.3,1.1-2.1,0.9c-5-0.9-9.9,0.2-14,2.8c-0.9,0.6-2.2,0.3-2.8-0.6c-0.6-0.9-0.3-2.2,0.6-2.8        c4.6-3,10-4.3,15.6-3.6c5.5-8.2,14.7-13.1,24.7-13.1c10,0,19.1,4.9,24.7,13.1c0.9-0.1,1.9-0.2,2.8-0.2        c12.8,0,23.3,10.4,23.3,23.3C1306.9,482.5,1296.5,493,1283.7,493z"/>
					</g>
				</g>
				<path class="st50" d="M1769.5,1462h-711.6c-2,0-3.7-1.7-3.7-3.7v-0.3c0-2,1.7-3.7,3.7-3.7h711.6c2,0,3.7,1.7,3.7,3.7v0.3      C1773.2,1460.4,1771.6,1462,1769.5,1462z"/>
				<path class="st50" d="M1769.5,1561.3h-711.6c-2,0-3.7-1.7-3.7-3.7v-0.3c0-2,1.7-3.7,3.7-3.7h711.6c2,0,3.7,1.7,3.7,3.7v0.3      C1773.2,1559.6,1771.6,1561.3,1769.5,1561.3z"/>
				<g>
				</g>
				<g>
				</g>
				<g>
				</g>
				<g>
					<g>
						<g>
						</g>
						<g>
							<g>
								<path class="st51" d="M1691.2,1436.3h-33.4c-7.6,0-13.8-6.2-13.8-13.8c0-7.6,6.2-13.8,13.8-13.8c0.6,0,1.2,0,1.9,0.1          c3.3-5,8.8-8,14.8-8c6,0,11.5,3,14.8,8c0.6-0.1,1.3-0.1,1.9-0.1c7.6,0,13.8,6.2,13.8,13.8          C1705,1430.1,1698.8,1436.3,1691.2,1436.3z M1657.8,1410.5c-6.6,0-12,5.4-12,12c0,6.6,5.4,12,12,12h33.4c6.6,0,12-5.4,12-12          c0-6.6-5.4-12-12-12c-0.7,0-1.4,0.1-2.2,0.2c-0.4,0.1-0.7-0.1-0.9-0.4c-2.9-4.8-8-7.6-13.6-7.6c-5.6,0-10.7,2.9-13.6,7.6          c-0.2,0.3-0.5,0.5-0.9,0.4C1659.3,1410.6,1658.5,1410.5,1657.8,1410.5z"/>
								<path class="st51" d="M1711.9,1421.9h-7.8c-0.5,0-0.9-0.4-0.9-0.9s0.4-0.9,0.9-0.9h7.8c4.7,0,8.4-3.8,8.4-8.4          c0-4.7-3.8-8.4-8.4-8.4c-0.5,0-1,0-1.5,0.1c-0.4,0.1-0.7-0.1-0.9-0.4c-2.1-3.4-5.7-5.4-9.6-5.4c-4,0-7.6,2-9.6,5.4          c-0.2,0.3-0.5,0.5-0.9,0.4c-2.2-0.4-4.3,0.1-6.1,1.2c-0.4,0.3-0.9,0.2-1.2-0.3c-0.3-0.4-0.2-0.9,0.3-1.2          c2-1.3,4.4-1.9,6.8-1.6c2.4-3.6,6.4-5.7,10.8-5.7c4.4,0,8.4,2.1,10.8,5.7c0.4-0.1,0.8-0.1,1.2-0.1c5.6,0,10.2,4.6,10.2,10.2          C1722.1,1417.3,1717.5,1421.9,1711.9,1421.9z"/>
							</g>
						</g>
					</g>
				</g>
				<g>
					<g>
						<g>
						</g>
						<g>
							<g>
								<path class="st51" d="M1691.2,1530.1h-33.4c-7.6,0-13.8-6.2-13.8-13.8c0-7.6,6.2-13.8,13.8-13.8c0.6,0,1.2,0,1.9,0.1          c3.3-5,8.8-8,14.8-8c6,0,11.5,3,14.8,8c0.6-0.1,1.3-0.1,1.9-0.1c7.6,0,13.8,6.2,13.8,13.8          C1705,1523.9,1698.8,1530.1,1691.2,1530.1z M1657.8,1504.3c-6.6,0-12,5.4-12,12c0,6.6,5.4,12,12,12h33.4c6.6,0,12-5.4,12-12          c0-6.6-5.4-12-12-12c-0.7,0-1.4,0.1-2.2,0.2c-0.4,0.1-0.7-0.1-0.9-0.4c-2.9-4.8-8-7.6-13.6-7.6c-5.6,0-10.7,2.9-13.6,7.6          c-0.2,0.3-0.5,0.5-0.9,0.4C1659.3,1504.3,1658.5,1504.3,1657.8,1504.3z"/>
								<path class="st51" d="M1711.9,1515.6h-7.8c-0.5,0-0.9-0.4-0.9-0.9s0.4-0.9,0.9-0.9h7.8c4.7,0,8.4-3.8,8.4-8.4          c0-4.7-3.8-8.4-8.4-8.4c-0.5,0-1,0-1.5,0.1c-0.4,0.1-0.7-0.1-0.9-0.4c-2.1-3.4-5.7-5.4-9.6-5.4c-4,0-7.6,2-9.6,5.4          c-0.2,0.3-0.5,0.5-0.9,0.4c-2.2-0.4-4.3,0.1-6.1,1.2c-0.4,0.3-0.9,0.2-1.2-0.3c-0.3-0.4-0.2-0.9,0.3-1.2          c2-1.3,4.4-1.9,6.8-1.6c2.4-3.6,6.4-5.7,10.8-5.7c4.4,0,8.4,2.1,10.8,5.7c0.4-0.1,0.8-0.1,1.2-0.1c5.6,0,10.2,4.6,10.2,10.2          C1722.1,1511.1,1717.5,1515.6,1711.9,1515.6z"/>
							</g>
						</g>
					</g>
				</g>
				<g>
					<g>
						<g>
						</g>
						<g>
							<g>
								<path class="st51" d="M1691.2,1625.1h-33.4c-7.6,0-13.8-6.2-13.8-13.8c0-7.6,6.2-13.8,13.8-13.8c0.6,0,1.2,0,1.9,0.1          c3.3-5,8.8-8,14.8-8c6,0,11.5,3,14.8,8c0.6-0.1,1.3-0.1,1.9-0.1c7.6,0,13.8,6.2,13.8,13.8          C1705,1618.9,1698.8,1625.1,1691.2,1625.1z M1657.8,1599.3c-6.6,0-12,5.4-12,12c0,6.6,5.4,12,12,12h33.4c6.6,0,12-5.4,12-12          c0-6.6-5.4-12-12-12c-0.7,0-1.4,0.1-2.2,0.2c-0.4,0.1-0.7-0.1-0.9-0.4c-2.9-4.8-8-7.6-13.6-7.6c-5.6,0-10.7,2.9-13.6,7.6          c-0.2,0.3-0.5,0.5-0.9,0.4C1659.3,1599.3,1658.5,1599.3,1657.8,1599.3z"/>
								<path class="st51" d="M1711.9,1610.6h-7.8c-0.5,0-0.9-0.4-0.9-0.9c0-0.5,0.4-0.9,0.9-0.9h7.8c4.7,0,8.4-3.8,8.4-8.4          c0-4.7-3.8-8.4-8.4-8.4c-0.5,0-1,0-1.5,0.1c-0.4,0.1-0.7-0.1-0.9-0.4c-2.1-3.4-5.7-5.4-9.6-5.4c-4,0-7.6,2-9.6,5.4          c-0.2,0.3-0.5,0.5-0.9,0.4c-2.2-0.4-4.3,0.1-6.1,1.2c-0.4,0.3-0.9,0.2-1.2-0.3c-0.3-0.4-0.2-0.9,0.3-1.2          c2-1.3,4.4-1.9,6.8-1.6c2.4-3.6,6.4-5.7,10.8-5.7c4.4,0,8.4,2.1,10.8,5.7c0.4-0.1,0.8-0.1,1.2-0.1c5.6,0,10.2,4.6,10.2,10.2          C1722.1,1606.1,1717.5,1610.6,1711.9,1610.6z"/>
							</g>
						</g>
					</g>
				</g>
				<g>
					<path class="st52" d="M1425,1107.5c-48.5,0-92.3,1.4-123.5,3.7c31.2,2.3,75,3.7,123.5,3.7c24,0,46.9-0.3,67.7-1       c-13-1.9-25.4-4-37.3-6.2C1445.5,1107.5,1435.3,1107.5,1425,1107.5"/>
					<path class="st53" d="M1455.3,1107.7c11.9,2.2,24.3,4.2,37.3,6.2c21.2-0.6,40.1-1.6,55.9-2.7       C1524,1109.4,1491.6,1108.1,1455.3,1107.7"/>
					<path class="st52" d="M1576.1,1135.5c-19.6,0-37.2,1.4-49.8,3.7c12.6,2.3,30.2,3.7,49.8,3.7c19.6,0,37.2-1.4,49.8-3.7       C1613.4,1136.9,1595.7,1135.5,1576.1,1135.5"/>
					<path class="st52" d="M1263.7,1094.2c-19.6,0-37.2,0.6-49.8,1.6c12.6,1,30.2,1.6,49.8,1.6c19.6,0,37.2-0.6,49.8-1.6       C1300.9,1094.8,1283.3,1094.2,1263.7,1094.2"/>
					<path class="st52" d="M1441.5,1182.9c-19.6,0-37.2,1.4-49.8,3.7c12.6,2.3,30.2,3.7,49.8,3.7c19.6,0,37.2-1.4,49.8-3.7       C1478.7,1184.4,1461.1,1182.9,1441.5,1182.9"/>
					<path class="st52" d="M1496.1,1155.1c-34.4,0-65.5,1-87.7,2.6c22.1,1.6,53.2,2.6,87.7,2.6c34.4,0,65.5-1,87.7-2.6       C1561.7,1156.1,1530.6,1155.1,1496.1,1155.1"/>
					<path class="st52" d="M1614,1180.3c-34.4,0-65.5,1-87.7,2.6c22.1,1.6,53.2,2.6,87.7,2.6c34.4,0,65.5-1,87.7-2.6       C1679.5,1181.3,1648.4,1180.3,1614,1180.3"/>
				</g>
				<g>
					<g>
						<linearGradient id="SVGID_28_" gradientUnits="userSpaceOnUse" x1="1357.0018" y1="1345.6288" x2="1357.0018" y2="1143.4335">
							<stop offset="0" style="stop-color:#516891"/>
							<stop offset="1" style="stop-color:#46557C"/>
						</linearGradient>
						<path class="st54" d="M1683.1,1356.9c0,0-214.2-252.6-652.1-280.6v280.6H1683.1z"/>
						<linearGradient id="SVGID_29_" gradientUnits="userSpaceOnUse" x1="1122.9998" y1="916.4689" x2="1122.9998" y2="1005.8951">
							<stop offset="0" style="stop-color:#516891"/>
							<stop offset="1" style="stop-color:#46557C"/>
						</linearGradient>
						<path class="st55" d="M1166.6,1017.1l-36.1-132.4c-2.1-7.7-13-7.7-15.1,0l-36.1,132.4c-5.2,19.1,9.2,37.9,29,37.9h6.6v54.9        h16.2v-54.9h6.6C1157.5,1055.1,1171.8,1036.2,1166.6,1017.1z"/>
						<linearGradient id="SVGID_30_" gradientUnits="userSpaceOnUse" x1="1214.4287" y1="945.2684" x2="1214.4287" y2="1036.9551">
							<stop offset="0" style="stop-color:#516891"/>
							<stop offset="1" style="stop-color:#46557C"/>
						</linearGradient>
						<path class="st56" d="M1250.7,1036.1l-30-110c-1.7-6.4-10.8-6.4-12.5,0l-30,110c-4.3,15.9,7.6,31.5,24.1,31.5h5.5v45.6h13.5        v-45.6h5.5C1243.1,1067.6,1255,1052,1250.7,1036.1z"/>
					</g>
				</g>
				<g>
					<g>
						<linearGradient id="SVGID_31_" gradientUnits="userSpaceOnUse" x1="1540.7642" y1="1365.9448" x2="1540.7642" y2="1237.9272">
							<stop offset="0" style="stop-color:#52527F"/>
							<stop offset="1" style="stop-color:#48466D"/>
						</linearGradient>
						<path class="st57" d="M1285.1,1356.9c0,0,156.9-116.6,511.4-154.6v154.6L1285.1,1356.9z"/>
						<linearGradient id="SVGID_32_" gradientUnits="userSpaceOnUse" x1="1703.0142" y1="975.915" x2="1703.0142" y2="1131.4485">
							<stop offset="0" style="stop-color:#52527F"/>
							<stop offset="1" style="stop-color:#48466D"/>
						</linearGradient>
						<path class="st58" d="M1759.4,1135.7l-46.6-170.9c-2.7-9.9-16.8-9.9-19.5,0l-46.6,170.9c-6.7,24.7,11.8,49,37.4,49h8.5v70.9        h20.9v-70.9h8.5C1747.5,1184.6,1766.1,1160.3,1759.4,1135.7z"/>
					</g>
				</g>
			</g>
</svg>
